<?xml version="1.0" encoding="utf-8"?>
<!-- Generator: Adobe Illustrator 16.0.0, SVG Export Plug-In . SVG Version: 6.00 Build 0)  -->
<!DOCTYPE svg PUBLIC "-//W3C//DTD SVG 1.1//EN" "http://www.w3.org/Graphics/SVG/1.1/DTD/svg11.dtd">
<svg version="1.1" id="Layer_1" xmlns="http://www.w3.org/2000/svg" xmlns:xlink="http://www.w3.org/1999/xlink" x="0px" y="0px"
	 width="115px" height="37.971px" viewBox="0 0 115 37.971" enable-background="new 0 0 115 37.971" xml:space="preserve">
<g id="logo_UQAM">
	<path fill="#FFFFFF" d="M59.769,37.007c-2.331,0.262-4.105,0.498-6.536,0.964c-1.88-0.618-8.969-3.583-12.896-4.814
		C30,33.063,26.769,25.887,26.779,19.948c0.012-6.822,4.564-13.566,14.246-13.559c10.171,0.008,14.391,6.767,14.362,13.528
		c-0.026,6.019-4.502,11.487-9.542,12.472c0.539,0.096,0.441-0.047,1.69,0.355c0.808,0.26,10.455,3.371,12.232,3.953V37.007z
		 M41.045,8.706c-5.977-0.03-8.189,5.605-8.218,11.216c-0.029,5.982,3.073,10.706,8.139,10.738c5.188,0.033,8.143-4.709,8.342-10.75
		C49.493,14.242,47.09,8.735,41.045,8.706z"/>
	<path fill="#FFFFFF" d="M63.491,24.967l-2.913,7.583h-4.321c1.281-3.147,10.809-24.495,11.276-25.66h2.956
		c0.815,1.515,10.491,23.386,11.54,25.66h-6.042l-3.059-7.583H63.491z M71.825,22.194l-3.717-9.229l-3.531,9.229H71.825z"/>
	<path fill="#FFFFFF" d="M99.632,24.188L91.317,6.89h-3.5l-3.505,25.66h4.244l1.516-16.894c0.641,0.933,7.657,16.113,8.007,16.929
		h1.686l7.697-16.929l1.459,16.894H115l-3.294-25.66h-3.728L99.632,24.188z"/>
	<path fill="#FFFFFF" d="M18.317,6.89c0,3.205,0,13.029,0,14.428c0,3.698-0.808,8.653-6.326,8.66
		c-3.515,0.004-6.22-1.918-6.226-6.637c-0.002-1.282,0-15.927,0-16.451H0.003c0,2.564-0.007,14.008,0,16.34
		c0.022,6.631,5.131,9.724,11.288,9.772c8.003,0.063,11.565-4.575,11.58-10.037c0.01-3.788,0-16.075,0-16.075H18.317z"/>
	<path fill="#FFFFFF" d="M56.604,0.962C58.904,0.661,61.241,0.253,62.796,0c1.443,0.48,10.333,3.873,12.082,4.397v0.249
		c-1.398,0.232-2.617,0.506-4.404,1.032c-1.354-0.437-12.689-4.12-13.87-4.47V0.962z"/>
</g>
</svg>
